<svg width="50" height="19" viewBox="0 0 50 19" fill="none" xmlns="http://www.w3.org/2000/svg">
<g clip-path="url(#clip0_241_16697)">
<g clip-path="url(#clip1_241_16697)">
<path d="M9.98486 17.7354V10.0586H18.1132L18.9852 11.1955L19.8861 10.0586H49.39V17.206C49.39 17.206 48.6184 17.7277 47.726 17.7354H31.3892L30.4059 16.5253V17.7354H27.1839V15.6697C27.1839 15.6697 26.7438 15.958 25.7923 15.958H24.6956V17.7354H19.8172L18.9464 16.5741L18.0622 17.7354H9.98486Z" fill="white"/>
<path d="M0.494629 4.27329L2.3276 0H5.49753L6.53776 2.39373V0H10.4783L11.0975 1.73011L11.6978 0H29.3866V0.869785C29.3866 0.869785 30.3166 0 31.8447 0L37.5841 0.0200575L38.6064 2.38245V0H41.9041L42.8117 1.357V0H46.1395V7.6768H42.8117L41.9419 6.3154V7.6768H37.0968L36.6097 6.46666H35.3072L34.8279 7.6768H31.5422C30.2272 7.6768 29.3866 6.82478 29.3866 6.82478V7.6768H24.4327L23.4495 6.46666V7.6768H5.02792L4.54102 6.46666H3.2427L2.75925 7.6768H0.494629V4.27329Z" fill="white"/>
<path d="M2.97471 0.945801L0.502441 6.69395H2.11202L2.56818 5.5429H5.22008L5.67389 6.69395H7.31892L4.849 0.945801H2.97471ZM3.88941 2.28357L4.69774 4.29495H3.07871L3.88941 2.28357Z" fill="#2A2A2A"/>
<path d="M7.49072 6.69395V0.945801L9.77803 0.954298L11.1084 4.66034L12.4069 0.945801H14.6759V6.69395H13.2388V2.45848L11.7156 6.69395H10.4553L8.92777 2.45848V6.69395H7.49072Z" fill="#2A2A2A"/>
<path d="M15.6587 6.69395V0.945801H20.348V2.23158H17.1109V3.2148H20.2724V4.42495H17.1109V5.446H20.348V6.69395H15.6587Z" fill="#2A2A2A"/>
<path d="M21.1782 0.945801V6.69395H22.6152V4.65185H23.2203L24.9434 6.69395H26.6995L24.8086 4.57621C25.5847 4.51073 26.3852 3.84469 26.3852 2.81065C26.3852 1.60104 25.4357 0.945801 24.3761 0.945801H21.1782ZM22.6152 2.23157H24.2579C24.652 2.23157 24.9386 2.53981 24.9386 2.83664C24.9386 3.21852 24.5673 3.44171 24.2792 3.44171H22.6152V2.23157Z" fill="#2A2A2A"/>
<path d="M28.4404 6.69395H26.9731V0.945801H28.4404V6.69395Z" fill="#2A2A2A"/>
<path d="M31.9206 6.69395H31.6039C30.0715 6.69395 29.1411 5.48666 29.1411 3.84351C29.1411 2.15977 30.0611 0.945801 31.9962 0.945801H33.5846V2.3072H31.9382C31.1526 2.3072 30.597 2.92027 30.597 3.85769C30.597 4.97089 31.2323 5.43844 32.1475 5.43844H32.5256L31.9206 6.69395Z" fill="#2A2A2A"/>
<path d="M35.049 0.945801L32.5767 6.69395H34.1863L34.6425 5.5429H37.2944L37.7482 6.69395H39.3931L36.9233 0.945801H35.049ZM35.9637 2.28357L36.772 4.29495H35.1529L35.9637 2.28357Z" fill="#2A2A2A"/>
<path d="M39.561 6.69395V0.945801H41.3881L43.7209 4.55731V0.945801H45.158V6.69395H43.39L40.9981 2.98791V6.69395H39.561Z" fill="#2A2A2A"/>
<path d="M10.9692 16.753V11.0049H15.6585V12.2906H12.4214V13.2739H15.5829V14.4841H12.4214V15.5051H15.6585V16.753H10.9692Z" fill="#2A2A2A"/>
<path d="M33.9478 16.753V11.0049H38.637V12.2906H35.3999V13.2739H38.5462V14.4841H35.3999V15.5051H38.637V16.753H33.9478Z" fill="#2A2A2A"/>
<path d="M15.842 16.753L18.1252 13.9144L15.7876 11.0049H17.598L18.9902 12.8036L20.387 11.0049H22.1267L19.8197 13.879L22.1072 16.753H20.2969L18.9453 14.9827L17.6264 16.753H15.842Z" fill="#2A2A2A"/>
<path d="M22.2739 11.0049V16.753H23.7488V14.9379H25.2614C26.5414 14.9379 27.5115 14.2588 27.5115 12.9383C27.5115 11.8443 26.7507 11.0049 25.4482 11.0049H22.2739ZM23.7488 12.3048H25.3418C25.7553 12.3048 26.0509 12.5583 26.0509 12.9666C26.0509 13.3503 25.7568 13.6284 25.337 13.6284H23.7488V12.3048Z" fill="#2A2A2A"/>
<path d="M28.1372 11.0049V16.753H29.5743V14.711H30.1794L31.9024 16.753H33.6585L31.7677 14.6353C32.5437 14.5698 33.3442 13.9038 33.3442 12.8698C33.3442 11.6601 32.3948 11.0049 31.3351 11.0049H28.1372ZM29.5743 12.2906H31.2169C31.611 12.2906 31.8977 12.5989 31.8977 12.8958C31.8977 13.2776 31.5263 13.5008 31.2383 13.5008H29.5743V12.2906Z" fill="#2A2A2A"/>
<path d="M39.3002 16.753V15.5051H42.1761C42.6017 15.5051 42.786 15.2751 42.786 15.0229C42.786 14.7813 42.6022 14.537 42.1761 14.537H40.8765C39.7468 14.537 39.1177 13.8487 39.1177 12.8154C39.1177 11.8937 39.6939 11.0049 41.3726 11.0049H44.171L43.5659 12.2982H41.1457C40.683 12.2982 40.5405 12.541 40.5405 12.7728C40.5405 13.0112 40.7165 13.2739 41.07 13.2739H42.4314C43.6907 13.2739 44.2372 13.9882 44.2372 14.9237C44.2372 15.9294 43.6283 16.753 42.3628 16.753H39.3002Z" fill="#2A2A2A"/>
<path d="M44.5755 16.753V15.5051H47.4514C47.8771 15.5051 48.0613 15.2751 48.0613 15.0229C48.0613 14.7813 47.8776 14.537 47.4514 14.537H46.1518C45.0222 14.537 44.3931 13.8487 44.3931 12.8154C44.3931 11.8937 44.9692 11.0049 46.6479 11.0049H49.4463L48.8412 12.2982H46.421C45.9583 12.2982 45.8159 12.541 45.8159 12.7728C45.8159 13.0112 45.9919 13.2739 46.3453 13.2739H47.7067C48.966 13.2739 49.5125 13.9882 49.5125 14.9237C49.5125 15.9294 48.9035 16.753 47.6381 16.753H44.5755Z" fill="#2A2A2A"/>
</g>
</g>
<defs>
<clipPath id="clip0_241_16697">
<rect width="50" height="18.17" fill="white"/>
</clipPath>
<clipPath id="clip1_241_16697">
<rect width="49.9675" height="18.17" fill="white" transform="translate(0.0161133)"/>
</clipPath>
</defs>
</svg>
