<svg width="98" height="19" viewBox="0 0 98 19" fill="none" xmlns="http://www.w3.org/2000/svg">
<g clip-path="url(#clip0_241_16716)">
<path fill-rule="evenodd" clip-rule="evenodd" d="M26.502 4.7361C26.502 4.60464 26.6203 4.49939 26.7518 4.49939H27.0802L32.3214 9.54408H32.3346V4.88067C32.3346 4.74921 32.4398 4.63085 32.5844 4.63085H34.1607C34.2922 4.63085 34.4106 4.74921 34.4106 4.88067V13.7213C34.4106 13.8529 34.2922 13.9581 34.1607 13.9581H33.9506C33.9113 13.9581 33.806 13.9184 33.7798 13.8921L28.591 8.67709H28.5775V13.5768C28.5775 13.7087 28.4726 13.8266 28.3281 13.8266H26.7648C26.6334 13.8266 26.515 13.7087 26.515 13.5768L26.502 4.7361Z" fill="#C1C2C5"/>
<path fill-rule="evenodd" clip-rule="evenodd" d="M4.73967 11.8559C6.18452 11.8559 7.36727 10.674 7.36727 9.24184C7.36727 7.79658 6.18452 6.60114 4.73967 6.60114C3.30793 6.60114 2.12559 7.79658 2.12559 9.24184C2.12559 10.674 3.30793 11.8559 4.73967 11.8559ZM4.73967 4.49939C7.36727 4.49939 9.46904 6.61424 9.46904 9.24184C9.46904 11.869 7.36727 13.9577 4.73967 13.9577C2.11208 13.9577 0.0234375 11.869 0.0234375 9.24184C0.0234375 6.61424 2.11208 4.49939 4.73967 4.49939Z" fill="#C1C2C5"/>
<path fill-rule="evenodd" clip-rule="evenodd" d="M14.3167 8.57123C14.8815 8.57123 15.3545 8.12443 15.3545 7.53346C15.3545 6.98182 14.8815 6.56122 14.3167 6.56122H13.0688V8.57123H14.3167ZM11.0195 4.88007C11.0195 4.74861 11.1248 4.63025 11.269 4.63025H14.4351C16.0507 4.63025 17.3777 5.94405 17.3777 7.53346C17.3777 9.1626 16.0507 10.4891 14.4482 10.4891H13.0688V13.5762C13.0688 13.7077 12.9506 13.826 12.819 13.826H11.269C11.1248 13.826 11.0195 13.7077 11.0195 13.5762V4.88007Z" fill="#C1C2C5"/>
<path fill-rule="evenodd" clip-rule="evenodd" d="M18.8184 4.88007C18.8184 4.74861 18.9236 4.63025 19.0677 4.63025H24.5064C24.651 4.63025 24.7562 4.74861 24.7562 4.88007V6.31181C24.7562 6.44327 24.651 6.56122 24.5064 6.56122H20.8677V8.19036H23.8626C23.994 8.19036 24.1124 8.30872 24.1124 8.43977V9.87192C24.1124 10.0165 23.994 10.1213 23.8626 10.1213H20.8677V11.8946H24.5064C24.651 11.8946 24.7562 12.013 24.7562 12.1444V13.5762C24.7562 13.7081 24.651 13.826 24.5064 13.826H19.0677C18.9236 13.826 18.8184 13.7081 18.8184 13.5762V4.88007Z" fill="#C1C2C5"/>
<path fill-rule="evenodd" clip-rule="evenodd" d="M42.821 11.9475C43.3333 11.9475 43.767 11.5273 43.767 10.9887C43.767 10.4629 43.2018 10.0689 42.6895 10.0689H41.6256V11.9475H42.821ZM42.6502 8.36114C43.1494 8.36114 43.5696 7.94095 43.5696 7.41552C43.5696 6.88967 43.1494 6.52191 42.6502 6.52191H41.6256V8.36114H42.6502ZM39.5762 4.88007C39.5762 4.74861 39.6815 4.63025 39.8256 4.63025H42.8869C44.437 4.63025 45.7111 5.69423 45.7111 7.07396C45.7111 8.08552 44.8048 8.82105 44.1872 9.14909C44.8834 9.43864 45.9474 10.082 45.9474 11.2906C45.9474 12.762 44.6467 13.826 43.0839 13.826H39.8256C39.6815 13.826 39.5762 13.7081 39.5762 13.5766V4.88007Z" fill="#C1C2C5"/>
<path fill-rule="evenodd" clip-rule="evenodd" d="M52.1249 10.674L51.1264 8.50631H51.1129L50.1279 10.674H52.1249ZM46.7255 13.485L50.8372 4.64396C50.8766 4.56492 50.9687 4.49939 51.0604 4.49939H51.1919C51.284 4.49939 51.3758 4.56492 51.4155 4.64396L55.5273 13.485C55.6059 13.6558 55.5006 13.8266 55.3037 13.8266H53.8457C53.6094 13.8266 53.5042 13.748 53.3858 13.4982L52.9127 12.4604H49.3395L48.8665 13.5112C48.801 13.669 48.6564 13.8266 48.3939 13.8266H46.9486C46.7517 13.8266 46.6468 13.6558 46.7255 13.485Z" fill="#C1C2C5"/>
<path fill-rule="evenodd" clip-rule="evenodd" d="M56.7852 4.7361C56.7852 4.60464 56.9035 4.49939 57.035 4.49939H57.3634L62.6047 9.54408H62.6178V4.88067C62.6178 4.74921 62.723 4.63085 62.8676 4.63085H64.4439C64.5754 4.63085 64.6938 4.74921 64.6938 4.88067V13.7213C64.6938 13.8529 64.5754 13.9581 64.4439 13.9581H64.2338C64.1941 13.9581 64.0893 13.9184 64.063 13.8921L58.8738 8.67709H58.8607V13.5768C58.8607 13.7087 58.7559 13.8266 58.6113 13.8266H57.0481C56.9166 13.8266 56.7983 13.7087 56.7983 13.5768L56.7852 4.7361Z" fill="#C1C2C5"/>
<path fill-rule="evenodd" clip-rule="evenodd" d="M66.7227 4.94559C66.7227 4.77482 66.8542 4.63025 67.0381 4.63025H68.575C68.7458 4.63025 68.89 4.77482 68.89 4.94559V8.40045L71.8067 4.76171C71.8591 4.69577 71.9774 4.63025 72.0561 4.63025H73.7114C73.9612 4.63025 74.0923 4.91938 73.9482 5.11637L70.8742 8.96521L74.2238 13.3268C74.3684 13.5238 74.2238 13.8129 73.9744 13.8129H72.1614C72.0692 13.8129 71.9513 13.7601 71.9251 13.7208L68.89 9.5959V13.5107C68.89 13.6814 68.7458 13.826 68.575 13.826H67.0381C66.8542 13.826 66.7227 13.6814 66.7227 13.5107V4.94559Z" fill="#C1C2C5"/>
<path fill-rule="evenodd" clip-rule="evenodd" d="M75.7363 4.88007C75.7363 4.74861 75.8547 4.63025 75.9858 4.63025H77.5625C77.6939 4.63025 77.8119 4.74861 77.8119 4.88007V13.5762C77.8119 13.7081 77.6939 13.826 77.5625 13.826H75.9858C75.8547 13.826 75.7363 13.7081 75.7363 13.5762V4.88007Z" fill="#C1C2C5"/>
<path fill-rule="evenodd" clip-rule="evenodd" d="M79.8672 4.73598C79.8672 4.60452 79.9856 4.49927 80.1167 4.49927H80.4455L85.6868 9.54396H85.6998V4.88055C85.6998 4.74909 85.8051 4.63073 85.9497 4.63073H87.5261C87.6576 4.63073 87.7754 4.74909 87.7754 4.88055V13.7212C87.7754 13.8527 87.6576 13.958 87.5261 13.958H87.3154C87.2768 13.958 87.171 13.9182 87.1452 13.892L81.9559 8.67697H81.9427V13.5767C81.9427 13.7086 81.8379 13.8265 81.6929 13.8265H80.1297C79.9983 13.8265 79.8803 13.7086 79.8803 13.5767L79.8672 4.73598Z" fill="#C1C2C5"/>
<path fill-rule="evenodd" clip-rule="evenodd" d="M93.9964 4.51221C95.1002 4.51221 96.3089 4.97212 97.2021 5.74737C97.3207 5.83911 97.3336 5.99678 97.2287 6.10163L96.1911 7.20533C96.0862 7.29748 95.941 7.29748 95.8361 7.21843C95.3366 6.75852 94.7589 6.58775 94.1151 6.58775C92.6837 6.58775 91.5275 7.7967 91.5275 9.24155C91.5275 10.6737 92.6966 11.8556 94.128 11.8556C94.5088 11.8556 94.9034 11.8032 95.2979 11.6455V10.8838H94.4701C94.3257 10.8838 94.2208 10.7785 94.2208 10.6471V9.3468C94.2208 9.20223 94.3257 9.09699 94.4701 9.09699H97.1109C97.2416 9.09699 97.3473 9.21534 97.3473 9.3468L97.3602 12.8807C97.3602 12.9463 97.3078 13.0515 97.2554 13.0908C97.2554 13.0908 95.9023 13.9443 93.9964 13.9443C91.3831 13.9443 89.2812 11.8687 89.2812 9.24155C89.2812 6.61395 91.3831 4.51221 93.9964 4.51221Z" fill="#C1C2C5"/>
</g>
<defs>
<clipPath id="clip0_241_16716">
<rect width="98" height="18.17" fill="white"/>
</clipPath>
</defs>
</svg>
