<svg width="45" height="20" viewBox="0 0 45 20" fill="none" xmlns="http://www.w3.org/2000/svg">
<g clip-path="url(#clip0_241_16732)">
<g clip-path="url(#clip1_241_16732)">
<path d="M21.3321 9.66114V14.8881H19.6738V1.97963H24.0718C24.5967 1.96866 25.1187 2.06176 25.6075 2.25357C26.0963 2.44537 26.5423 2.73208 26.9197 3.09713C27.3009 3.44003 27.6043 3.86056 27.8095 4.33045C28.0147 4.80034 28.1169 5.30871 28.1093 5.8214C28.1202 6.33682 28.0195 6.84851 27.8142 7.3214C27.6089 7.79428 27.3038 8.21718 26.9197 8.5611C26.1506 9.29447 25.2014 9.66079 24.0718 9.6601H21.3321V9.66114ZM21.3321 3.56886V8.07496H24.113C24.4179 8.084 24.7213 8.02931 25.0038 7.91437C25.2864 7.79945 25.5417 7.62683 25.7538 7.40755C25.9647 7.20252 26.1323 6.95729 26.2468 6.68634C26.3612 6.41541 26.4202 6.12427 26.4202 5.83015C26.4202 5.53603 26.3612 5.24489 26.2468 4.97395C26.1323 4.70302 25.9647 4.45779 25.7538 4.25276C25.5444 4.02885 25.2899 3.85199 25.007 3.73391C24.7241 3.61583 24.4194 3.55922 24.113 3.56783H21.3321V3.56886Z" fill="#C1C2C5"/>
<path d="M31.928 5.7688C33.1537 5.7688 34.1212 6.09633 34.8305 6.75138C35.5397 7.40644 35.8941 8.30458 35.8934 9.44575V14.8891H34.3072V13.6635H34.2352C33.5485 14.6728 32.6352 15.1775 31.4954 15.1775C30.5225 15.1775 29.7084 14.8891 29.0534 14.3123C28.739 14.0476 28.4877 13.7161 28.3177 13.3419C28.1477 12.9678 28.0633 12.5604 28.0708 12.1495C28.0708 11.2355 28.4161 10.5087 29.1069 9.96896C29.7977 9.42931 30.7199 9.15879 31.8734 9.1574C32.8581 9.1574 33.669 9.33766 34.3062 9.69809V9.31906C34.3081 9.03893 34.2476 8.76191 34.1292 8.50806C34.0107 8.2542 33.8372 8.02988 33.6213 7.85139C33.1828 7.45575 32.6113 7.23988 32.0207 7.2468C31.0944 7.2468 30.3614 7.6375 29.8217 8.4189L28.3613 7.49914C29.1646 6.34558 30.3536 5.7688 31.928 5.7688ZM29.7826 12.1855C29.7815 12.3965 29.8308 12.6047 29.9265 12.7929C30.0221 12.981 30.1614 13.1435 30.3326 13.2669C30.6994 13.5555 31.1546 13.7083 31.6211 13.6995C32.3208 13.6983 32.9916 13.4199 33.4863 12.925C34.0357 12.408 34.3103 11.8013 34.3103 11.105C33.7933 10.693 33.0723 10.4871 32.1474 10.4871C31.4738 10.4871 30.9121 10.6495 30.4623 10.9743C30.0082 11.3038 29.7826 11.7045 29.7826 12.1855Z" fill="#C1C2C5"/>
<path d="M45.0011 6.05542L39.4639 18.7806H37.7522L39.807 14.3281L36.166 6.05542H37.9684L40.6 12.4H40.6361L43.1955 6.05542H45.0011Z" fill="#C1C2C5"/>
<path d="M14.629 8.53545C14.6296 8.0301 14.5869 7.52563 14.5013 7.02759H7.50781V9.88364H11.5134C11.4314 10.3399 11.2579 10.7746 11.0033 11.162C10.7488 11.5492 10.4185 11.881 10.0323 12.1373V13.9912H12.4228C13.8226 12.7006 14.629 10.7921 14.629 8.53545Z" fill="#C1C2C5"/>
<path d="M7.50662 15.7808C9.50788 15.7808 11.1929 15.1238 12.4216 13.9908L10.0311 12.1369C9.3657 12.588 8.50878 12.8455 7.50662 12.8455C5.57235 12.8455 3.93059 11.5416 3.3435 9.78442H0.880859V11.695C1.49809 12.9233 2.44453 13.9557 3.61453 14.6772C4.78453 15.3987 6.13205 15.7808 7.50662 15.7808Z" fill="#C1C2C5"/>
<path d="M3.34605 9.78503C3.03568 8.86432 3.03568 7.86722 3.34605 6.94648V5.03589H0.883394C0.364165 6.0691 0.09375 7.20942 0.09375 8.36577C0.09375 9.52213 0.364165 10.6624 0.883394 11.6956L3.34605 9.78503Z" fill="#C1C2C5"/>
<path d="M7.50662 3.88535C8.56418 3.86808 9.58602 4.26765 10.3514 4.99771L12.4679 2.88113C11.1258 1.62053 9.34778 0.928445 7.50662 0.949949C6.13205 0.950012 4.78453 1.33213 3.61453 2.05362C2.44453 2.77512 1.49809 3.80761 0.880859 5.03583L3.3435 6.9464C3.93059 5.18928 5.57235 3.88535 7.50662 3.88535Z" fill="#C1C2C5"/>
</g>
</g>
<defs>
<clipPath id="clip0_241_16732">
<rect width="45" height="19.28" fill="white" transform="translate(0 0.170044)"/>
</clipPath>
<clipPath id="clip1_241_16732">
<rect width="45" height="19.0385" fill="white" transform="translate(0 0.290771)"/>
</clipPath>
</defs>
</svg>
