<svg width="45" height="20" viewBox="0 0 45 20" fill="none" xmlns="http://www.w3.org/2000/svg">
<g clip-path="url(#clip0_241_16742)">
<g clip-path="url(#clip1_241_16742)">
<path d="M8.22675 3.10315C7.6995 3.72336 6.85591 4.21255 6.01231 4.14266C5.90686 3.30406 6.31987 2.41304 6.80318 1.86271C7.33043 1.22503 8.25311 0.770782 9.00005 0.73584C9.08792 1.60939 8.74521 2.46546 8.22675 3.10315ZM8.99126 4.30863C7.7698 4.23876 6.72409 4.99874 6.14412 4.99874C5.55536 4.99874 4.66782 4.34358 3.70121 4.36105C2.4446 4.37852 1.27586 5.0861 0.634379 6.21297C-0.683741 8.46671 0.291669 11.8037 1.56585 13.6381C2.18976 14.5466 2.9367 15.5424 3.92089 15.5075C4.85236 15.4725 5.22143 14.9047 6.34623 14.9047C7.47982 14.9047 7.80495 15.5075 8.78914 15.49C9.80851 15.4725 10.45 14.5815 11.0739 13.6731C11.7856 12.6422 12.0757 11.6377 12.0932 11.5852C12.0757 11.5678 10.1248 10.8252 10.1073 8.589C10.0897 6.71962 11.6451 5.8286 11.7154 5.77619C10.8366 4.48335 9.46579 4.34358 8.99126 4.30863ZM16.0476 1.77536V15.394H18.1742V10.7379H21.118C23.8069 10.7379 25.6962 8.90348 25.6962 6.24791C25.6962 3.59233 23.8421 1.77536 21.1883 1.77536H16.0476ZM18.1742 3.55738H20.6259C22.4712 3.55738 23.5258 4.53576 23.5258 6.25664C23.5258 7.97753 22.4712 8.96463 20.6171 8.96463H18.1742V3.55738ZM29.5803 15.4987C30.916 15.4987 32.155 14.8261 32.7174 13.7604H32.7614V15.394H34.7297V8.61521C34.7297 6.64974 33.148 5.3831 30.7139 5.3831C28.4555 5.3831 26.7858 6.66721 26.7243 8.43176H28.64C28.7982 7.59317 29.5803 7.04283 30.6524 7.04283C31.9529 7.04283 32.6823 7.64558 32.6823 8.75498V9.50621L30.0285 9.66348C27.5592 9.81194 26.2235 10.8165 26.2235 12.5637C26.2235 14.3282 27.6031 15.4987 29.5803 15.4987ZM30.1515 13.8827C29.0179 13.8827 28.2973 13.3411 28.2973 12.5112C28.2973 11.6551 28.9916 11.1572 30.3184 11.0786L32.6823 10.9301V11.6988C32.6823 12.9742 31.5926 13.8827 30.1515 13.8827ZM37.3572 19.0977C39.431 19.0977 40.4064 18.3116 41.2589 15.9268L44.9935 5.51413H42.8318L40.3274 13.5595H40.2834L37.779 5.51413H35.5558L39.1586 15.4288L38.9653 16.0316C38.6402 17.0537 38.1129 17.4467 37.1726 17.4467C37.0057 17.4467 36.6805 17.4293 36.5488 17.4118V19.0453C36.6718 19.0803 37.1991 19.0977 37.3572 19.0977Z" fill="#C1C2C5"/>
</g>
</g>
<defs>
<clipPath id="clip0_241_16742">
<rect width="45" height="19.28" fill="white" transform="translate(0 0.170044)"/>
</clipPath>
<clipPath id="clip1_241_16742">
<rect width="44.9867" height="19.28" fill="white" transform="translate(0.00683594 0.170044)"/>
</clipPath>
</defs>
</svg>
