<svg width="43" height="19" viewBox="0 0 43 19" fill="none" xmlns="http://www.w3.org/2000/svg">
<g clip-path="url(#clip0_241_16746)">
<g clip-path="url(#clip1_241_16746)">
<path d="M18.4226 15.7764H14.9785L17.1327 2.45654H20.5766L18.4226 15.7764Z" fill="#C1C2C5"/>
<path d="M30.9094 2.7829C30.2301 2.51339 29.1526 2.21582 27.8203 2.21582C24.4192 2.21582 22.0241 4.02949 22.0095 6.62249C21.9812 8.5356 23.7243 9.59819 25.0279 10.2361C26.3603 10.8879 26.8133 11.3134 26.8133 11.8944C26.7998 12.7867 25.7366 13.198 24.745 13.198C23.37 13.198 22.6332 12.9859 21.5136 12.4895L21.0601 12.2767L20.5781 15.2667C21.3859 15.6347 22.8741 15.9613 24.4192 15.9756C28.033 15.9756 30.3857 14.1899 30.4135 11.4267C30.4273 9.91045 29.5068 8.74861 27.5226 7.79921C26.318 7.18976 25.5803 6.77881 25.5803 6.15523C25.5944 5.58834 26.2043 5.0077 27.564 5.0077C28.6837 4.97927 29.5063 5.24839 30.1295 5.51772L30.441 5.65915L30.9094 2.7829Z" fill="#C1C2C5"/>
<path d="M35.4868 11.0576C35.7704 10.2924 36.8618 7.33085 36.8618 7.33085C36.8475 7.35929 37.1449 6.55152 37.315 6.05563L37.5557 7.20335C37.5557 7.20335 38.2079 10.3917 38.3495 11.0576C37.8112 11.0576 36.167 11.0576 35.4868 11.0576ZM39.7381 2.45654H37.0741C36.2526 2.45654 35.6284 2.69724 35.274 3.56169L30.1582 15.7762H33.772C33.772 15.7762 34.367 14.1322 34.4948 13.7781C34.8913 13.7781 38.4068 13.7781 38.9168 13.7781C39.0157 14.2458 39.3277 15.7762 39.3277 15.7762H42.5166L39.7381 2.45654Z" fill="#C1C2C5"/>
<path d="M12.1028 2.45654L8.72987 11.5393L8.36129 9.69728C7.73771 7.57173 5.78203 5.26236 3.59961 4.11408L6.68906 15.7622H10.3311L15.7446 2.45654H12.1028Z" fill="#C1C2C5"/>
<path d="M5.59789 2.45667H0.0566886L0 2.7258C4.32248 3.83113 7.18518 6.49551 8.36133 9.69797L7.15674 3.57632C6.95842 2.72561 6.34897 2.48473 5.59789 2.45667Z" fill="#C1C2C5"/>
</g>
</g>
<defs>
<clipPath id="clip0_241_16746">
<rect width="43" height="18.17" fill="white" transform="translate(0 0.449951)"/>
</clipPath>
<clipPath id="clip1_241_16746">
<rect width="43" height="14.6383" fill="white" transform="translate(0 2.21582)"/>
</clipPath>
</defs>
</svg>
