<svg width="31" height="19" viewBox="0 0 31 19" fill="none" xmlns="http://www.w3.org/2000/svg">
<g clip-path="url(#clip0_241_16755)">
<g clip-path="url(#clip1_241_16755)">
<mask id="mask0_241_16755" style="mask-type:luminance" maskUnits="userSpaceOnUse" x="0" y="0" width="31" height="18">
<path d="M30.0306 0.451416H0.103516V17.5526H30.0306V0.451416Z" fill="white"/>
</mask>
<g mask="url(#mask0_241_16755)">
<path d="M19.1134 2.28015H11.0215V15.7236H19.1134V2.28015Z" fill="#8F9194"/>
<path d="M11.5349 9.002C11.5349 6.27057 12.922 3.8479 15.0542 2.2803C13.4872 1.14021 11.5091 0.451416 9.35136 0.451416C4.23936 0.451416 0.103516 4.27543 0.103516 9.002C0.103516 13.7286 4.23936 17.5526 9.35136 17.5526C11.5091 17.5526 13.4872 16.8638 15.0542 15.7238C12.922 14.1561 11.5349 11.7334 11.5349 9.002Z" fill="#636467"/>
<path d="M29.1584 14.2987V14.0136H29.2868V13.9662H28.9785V14.0136H29.107V14.2987H29.1584ZM29.7492 14.2987V13.9662H29.6464L29.5437 14.2037L29.4409 13.9662H29.3382V14.2987H29.4152V14.0375L29.518 14.2512H29.5951L29.6978 14.0375V14.2987H29.7492Z" fill="white"/>
<path d="M30.031 9.002C30.031 13.7286 25.8952 17.5526 20.7832 17.5526C18.6254 17.5526 16.6473 16.8638 15.0803 15.7238C17.2125 14.1561 18.5997 11.7334 18.5997 9.002C18.5997 6.27057 17.2125 3.8479 15.0547 2.2803C16.6473 1.14021 18.6254 0.451416 20.7832 0.451416C25.8952 0.451416 30.031 4.27543 30.031 9.002Z" fill="#C1C2C5"/>
</g>
</g>
</g>
<defs>
<clipPath id="clip0_241_16755">
<rect width="31" height="18.17" fill="white" transform="translate(0 0.449951)"/>
</clipPath>
<clipPath id="clip1_241_16755">
<rect width="30.9959" height="18.17" fill="white" transform="translate(0.00195312 0.449951)"/>
</clipPath>
</defs>
</svg>
