<svg width="18" height="28" viewBox="0 0 18 28" fill="none" xmlns="http://www.w3.org/2000/svg">
<g clip-path="url(#clip0_241_16766)">
<g clip-path="url(#clip1_241_16766)">
<path d="M16.3666 9.60598C16.1158 7.01769 13.8808 6.15101 11.0591 5.90546L11.0584 2.31482L8.87214 2.31646L8.87254 5.81279C8.29849 5.81319 7.71113 5.8241 7.12781 5.83678L7.12505 2.31796L4.94094 2.31909L4.94384 5.9078L0.537109 5.91689L0.538781 8.25146C0.538781 8.25146 2.15288 8.21986 2.12606 8.24967C3.01135 8.24957 3.30024 8.76307 3.384 9.20671L3.38876 19.0427C3.35001 19.3214 3.18646 19.7654 2.56781 19.7658C2.59593 19.7906 0.978549 19.7645 0.978549 19.7645L0.546408 22.3784L4.95174 22.3892L4.95448 26.0212L7.13765 26.0203L7.13621 22.427C7.73677 22.4387 8.31571 22.4435 8.88161 22.4427L8.88255 26.0193L11.0683 26.0178L11.0672 22.3924C14.7419 22.1794 17.3135 21.2522 17.6302 17.804C17.8866 15.0256 16.5797 13.7864 14.4932 13.2862C15.7598 12.639 16.5515 11.5021 16.3652 9.6077L16.3666 9.60598ZM13.3113 17.3736C13.3122 20.0877 8.66671 19.7817 7.18463 19.7835L7.18276 14.9719C8.66436 14.9715 13.3088 14.5432 13.312 17.3731L13.3113 17.3736ZM12.2932 10.5854C12.294 13.0555 8.418 12.769 7.18342 12.7695L7.17966 8.40484C8.41471 8.4046 12.2907 8.01019 12.2916 10.5856" fill="#C1C2C5"/>
</g>
</g>
<defs>
<clipPath id="clip0_241_16766">
<rect width="18" height="27.03" fill="white" transform="translate(0 0.619995)"/>
</clipPath>
<clipPath id="clip1_241_16766">
<rect width="18" height="25.0435" fill="white" transform="translate(0 1.61328)"/>
</clipPath>
</defs>
</svg>
