<svg width="17" height="28" viewBox="0 0 17 28" fill="none" xmlns="http://www.w3.org/2000/svg">
<g clip-path="url(#clip0_241_16771)">
<g clip-path="url(#clip1_241_16771)">
<path d="M8.31872 0.619995L8.1377 1.23544V19.0942L8.31872 19.2749L16.6086 14.3749L8.31872 0.619995Z" fill="#343434"/>
<path d="M8.31812 0.619995L0.0283203 14.3749L8.31812 19.275V10.6069V0.619995Z" fill="#8C8C8C"/>
<path d="M8.31987 20.8447L8.21777 20.9692V27.3309L8.31987 27.6289L16.6146 15.9471L8.31987 20.8447Z" fill="#3C3C3B"/>
<path d="M8.31812 27.6289V20.8447L0.0283203 15.9471L8.31812 27.6289Z" fill="#8C8C8C"/>
<path d="M8.31738 19.2749L16.6071 14.3749L8.31738 10.6069V19.2749Z" fill="#141414"/>
<path d="M0.0283203 14.3748L8.31805 19.2748V10.6068L0.0283203 14.3748Z" fill="#393939"/>
</g>
</g>
<defs>
<clipPath id="clip0_241_16771">
<rect width="17" height="27.03" fill="white" transform="translate(0 0.619995)"/>
</clipPath>
<clipPath id="clip1_241_16771">
<rect width="16.9903" height="27.03" fill="white" transform="translate(0.00488281 0.619995)"/>
</clipPath>
</defs>
</svg>
