<svg width="20" height="34" viewBox="0 0 20 34" fill="none" xmlns="http://www.w3.org/2000/svg">
<path d="M7.11572 18.5022C8.19124 18.0647 9.22119 17.8459 10.2056 17.8459C11.1899 17.8459 12.2108 18.0647 13.2681 18.5022C14.3436 18.9215 14.8813 19.4775 14.8813 20.1702V21.3459H5.52979V20.1702C5.52979 19.4775 6.05843 18.9215 7.11572 18.5022ZM11.8462 15.9866C11.3905 16.4423 10.8436 16.6702 10.2056 16.6702C9.56755 16.6702 9.02067 16.4423 8.56494 15.9866C8.10921 15.5308 7.88135 14.984 7.88135 14.3459C7.88135 13.7079 8.10921 13.1611 8.56494 12.7053C9.02067 12.2314 9.56755 11.9944 10.2056 11.9944C10.8436 11.9944 11.3905 12.2314 11.8462 12.7053C12.3019 13.1611 12.5298 13.7079 12.5298 14.3459C12.5298 14.984 12.3019 15.5308 11.8462 15.9866Z" fill="#404040"/>
</svg>
