<svg width="21" height="34" viewBox="0 0 21 34" fill="none" xmlns="http://www.w3.org/2000/svg">
<path d="M7.46973 15.4944H10.3955V18.4202H7.46973V15.4944ZM14.4697 20.7444V14.3459H6.32129V20.7444H14.4697ZM14.4697 11.4202C14.7796 11.4202 15.0531 11.5387 15.29 11.7756C15.527 12.0126 15.6455 12.2861 15.6455 12.5959V20.7444C15.6455 21.0543 15.527 21.3277 15.29 21.5647C15.0531 21.8017 14.7796 21.9202 14.4697 21.9202H6.32129C5.99316 21.9202 5.71061 21.8108 5.47363 21.592C5.25488 21.3551 5.14551 21.0725 5.14551 20.7444V12.5959C5.14551 12.2861 5.25488 12.0126 5.47363 11.7756C5.71061 11.5387 5.99316 11.4202 6.32129 11.4202H6.89551V10.2444H8.07129V11.4202H12.7197V10.2444H13.8955V11.4202H14.4697Z" fill="#404040"/>
</svg>
