<svg width="20" height="34" viewBox="0 0 20 34" fill="none" xmlns="http://www.w3.org/2000/svg">
<path d="M14.0596 21.3459V14.9202H5.91113V21.3459H14.0596ZM14.0596 11.9944C14.3695 11.9944 14.6429 12.1129 14.8799 12.3499C15.1169 12.5868 15.2354 12.8603 15.2354 13.1702V21.3459C15.2354 21.6558 15.1169 21.9293 14.8799 22.1663C14.6429 22.385 14.3695 22.4944 14.0596 22.4944H5.91113C5.58301 22.4944 5.30046 22.385 5.06348 22.1663C4.84473 21.9475 4.73535 21.6741 4.73535 21.3459V13.1702C4.73535 12.8603 4.84473 12.5868 5.06348 12.3499C5.30046 12.1129 5.58301 11.9944 5.91113 11.9944H6.48535V10.8459H7.66113V11.9944H12.3096V10.8459H13.4854V11.9944H14.0596ZM12.9111 16.0959V17.2444H11.7354V16.0959H12.9111ZM10.5596 16.0959V17.2444H9.41113V16.0959H10.5596ZM8.23535 16.0959V17.2444H7.05957V16.0959H8.23535Z" fill="#404040"/>
</svg>
