<svg width="24" height="25" viewBox="0 0 24 25" fill="none" xmlns="http://www.w3.org/2000/svg">
<g clip-path="url(#clip0_241_16863)">
<g clip-path="url(#clip1_241_16863)">
<path d="M2 12.5C2 8.729 2 6.843 3.172 5.672C4.343 4.5 6.229 4.5 10 4.5H14C17.771 4.5 19.657 4.5 20.828 5.672C22 6.843 22 8.729 22 12.5C22 16.271 22 18.157 20.828 19.328C19.657 20.5 17.771 20.5 14 20.5H10C6.229 20.5 4.343 20.5 3.172 19.328C2 18.157 2 16.271 2 12.5Z" stroke="black" stroke-width="1.5"/>
<path d="M6 8.5L8.159 10.3C9.996 11.83 10.914 12.595 12 12.595C13.086 12.595 14.005 11.83 15.841 10.299L18 8.5" stroke="black" stroke-width="1.5" stroke-linecap="round"/>
</g>
</g>
<defs>
<clipPath id="clip0_241_16863">
<rect width="24" height="24" fill="white" transform="translate(0 0.5)"/>
</clipPath>
<clipPath id="clip1_241_16863">
<rect width="24" height="24" fill="white" transform="translate(0 0.5)"/>
</clipPath>
</defs>
</svg>
