<svg width="288" height="48" viewBox="0 0 288 48" fill="none" xmlns="http://www.w3.org/2000/svg">
<g clip-path="url(#clip0_241_16650)">
<path d="M12.6381 0.496582H8.96356L0.0253906 17.5784H3.40201L5.28896 13.8045H16.2134L18.1003 17.5784H21.477L12.6381 0.496582ZM14.7237 11.0237H6.77866L10.7512 3.47596L14.7237 11.0237Z" fill="#030405"/>
<path d="M31.9049 10.1299H41.6377V7.34918H31.9049V3.37666H45.908V0.496582H28.8262V17.5784H46.5037V14.7976H31.9049V10.1299Z" fill="#030405"/>
<path d="M71.2325 10.5274C71.7293 10.2294 72.2258 9.93149 72.6229 9.53421C73.0201 9.13697 73.318 8.6404 73.5169 8.04454C73.7155 7.44865 73.8148 6.75346 73.8148 6.05827C73.8148 4.36994 73.318 3.07889 72.3251 2.08576C71.3318 1.09263 69.9413 0.596069 68.0544 0.596069H54.9453V17.6779H58.0241V11.2225H66.1675L70.6367 17.5786V17.6779H74.212L69.7428 11.1232C70.2395 10.9246 70.8353 10.726 71.2325 10.5274ZM58.0241 3.37684H67.558C69.7428 3.37684 70.8353 4.27065 70.8353 5.95897C70.8353 6.75346 70.6367 7.34935 70.041 7.74659C69.5442 8.14384 68.7498 8.34246 67.7565 8.34246H58.0241V3.37684Z" fill="#030405"/>
<path d="M99.9339 2.2842C99.0402 1.589 97.8484 0.993127 96.6565 0.595876C95.3657 0.198624 94.0745 0 92.5848 0C91.095 0 89.8039 0.198624 88.5131 0.595876C87.2219 0.993127 86.1294 1.589 85.2357 2.2842C82.9513 4.07181 81.7598 6.35603 81.7598 9.03746C81.7598 11.8182 82.9513 14.1024 85.1364 15.7907C86.0301 16.4859 87.2219 17.0818 88.4138 17.4791C89.7046 17.8763 91.095 18.0749 92.4855 18.0749C93.9752 18.0749 95.3657 17.8763 96.5572 17.4791C97.8484 17.0818 98.9409 16.4859 99.8346 15.7907C102.119 14.1024 103.211 11.8182 103.211 8.93817C103.41 6.2567 102.218 4.07181 99.9339 2.2842ZM92.5848 15.1949C91.3929 15.1949 90.4 15.0955 89.4067 14.7976C88.5131 14.4997 87.6191 14.1024 87.0233 13.5065C86.328 13.01 85.8315 12.3148 85.5336 11.5203C85.1364 10.7258 85.0371 9.93127 85.0371 9.03746C85.0371 8.14365 85.2357 7.34914 85.6329 6.55465C86.0301 5.76014 86.5269 5.16427 87.2219 4.56838C87.917 3.97252 88.7117 3.57527 89.6053 3.27733C90.4993 2.97939 91.5915 2.78076 92.6841 2.78076C93.6774 2.78076 94.6703 2.88007 95.5643 3.178C96.4579 3.47595 97.2526 3.87319 97.8484 4.27046C99.4374 5.46222 100.232 7.05122 100.232 8.93817C100.232 9.83198 100.033 10.7258 99.7353 11.421C99.3381 12.2155 98.8416 12.8114 98.2455 13.4072C97.5505 13.9038 96.7558 14.4004 95.8621 14.6983C94.8689 15.0955 93.7766 15.1949 92.5848 15.1949Z" fill="#030405"/>
<path d="M129.827 1.98627C129.33 1.48971 128.734 1.19177 128.039 0.89383C127.344 0.595893 126.549 0.496582 125.656 0.496582H112.348V17.5784H115.426V11.2224H125.159C127.145 11.2224 128.734 10.7258 129.827 9.83199C130.919 8.93818 131.416 7.5478 131.416 5.85947C131.416 5.06496 131.316 4.27047 131.019 3.67458C130.621 2.9794 130.323 2.48284 129.827 1.98627ZM127.443 7.74642C126.947 8.14366 126.152 8.34228 125.159 8.34228H115.426V3.27734H124.961C127.145 3.27734 128.138 4.17115 128.138 5.85947C128.138 6.75328 127.94 7.34918 127.443 7.74642Z" fill="#030405"/>
<path d="M146.81 0.496582H143.135L134.197 17.5784H137.574L139.461 13.8045H150.385L152.272 17.5784H155.649L146.81 0.496582ZM148.995 11.0237H141.05L145.022 3.47596L148.995 11.0237Z" fill="#030405"/>
<path d="M179.186 10.5274C179.682 10.2294 180.179 9.93149 180.576 9.53421C180.973 9.13697 181.271 8.6404 181.47 8.04454C181.669 7.44865 181.768 6.75346 181.768 6.05827C181.768 4.36994 181.271 3.07889 180.278 2.08576C179.285 1.09263 177.894 0.596069 176.008 0.596069H162.898V17.6779H165.977V11.2225H174.121L178.59 17.5786V17.6779H182.165L177.696 11.1232C178.193 10.9246 178.689 10.726 179.186 10.5274ZM165.977 3.37684H175.511C177.696 3.37684 178.788 4.27065 178.788 5.95897C178.788 6.75346 178.59 7.34935 177.994 7.74659C177.497 8.14384 176.703 8.34246 175.71 8.34246H165.977V3.37684Z" fill="#030405"/>
<path d="M187.131 3.37666H195.076V17.5784H198.154V3.37666H206V0.496582H187.131V3.37666Z" fill="#030405"/>
<path d="M229.239 14.0031L216.924 0.595896L216.825 0.496582H213.15V17.5784H216.229V4.07185L228.643 17.5784H228.743H232.318V0.496582H229.239V14.0031Z" fill="#030405"/>
<path d="M245.229 10.1299H254.962V7.34918H245.229V3.37666H259.232V0.496582H242.15V17.5784H259.828V14.7976H245.229V10.1299Z" fill="#030405"/>
<path d="M283.067 11.0239C283.563 10.9246 284.06 10.726 284.557 10.5274C285.053 10.2294 285.55 9.93149 285.947 9.53421C286.344 9.13697 286.642 8.6404 286.841 8.04454C287.039 7.44865 287.139 6.75346 287.139 6.05827C287.139 4.36994 286.642 3.07889 285.649 2.08576C284.656 1.09263 283.266 0.596069 281.379 0.596069H268.17V17.6779H271.249V11.2225H279.392L283.861 17.5786V17.6779H287.437L283.067 11.0239ZM271.348 3.37684H280.882C283.067 3.37684 284.159 4.27065 284.159 5.95897C284.159 6.75346 283.961 7.34935 283.365 7.74659C282.868 8.14384 282.074 8.34246 281.081 8.34246H271.348V3.37684Z" fill="#030405"/>
<path d="M39.1111 45.6503C38.1498 45.6503 37.3529 45.3119 36.7204 44.6352C36.0943 43.9522 35.7812 43.13 35.7812 42.1687C35.7812 41.1884 36.0975 40.363 36.7299 39.6926C37.3624 39.0222 38.1561 38.687 39.1111 38.687C39.8258 38.687 40.474 38.8704 41.0559 39.2372C41.6377 39.6041 42.0235 40.1164 42.2133 40.7741H41.2551C41.078 40.3883 40.7871 40.0879 40.3823 39.8729C39.9839 39.6578 39.5601 39.5503 39.1111 39.5503C38.3964 39.5503 37.8209 39.8065 37.3845 40.3187C36.9544 40.831 36.7394 41.4477 36.7394 42.1687C36.7394 42.896 36.9576 43.5158 37.394 44.0281C37.8304 44.534 38.4028 44.787 39.1111 44.787C40.104 44.787 40.825 44.3759 41.2741 43.5537H42.2133C42.1058 43.9775 41.8907 44.3538 41.5682 44.6826C41.2456 45.0052 40.8693 45.2518 40.4392 45.4226C40.0661 45.5744 39.6234 45.6503 39.1111 45.6503ZM48.9672 45.5364L48.2178 43.9142H44.6318L43.8823 45.5364H42.9716L46.0832 38.7629H46.8137L49.9349 45.5364H48.9672ZM45.0112 43.0794H47.8383L46.4248 40.0057L45.0112 43.0794ZM51.2899 45.5364V38.8009H54.7905C55.4862 38.8009 56.0364 38.959 56.4412 39.2752C56.8523 39.5851 57.0578 40.0752 57.0578 40.7456C57.0578 41.4034 56.8491 41.8999 56.4317 42.2351C56.0143 42.5639 55.4672 42.7284 54.7905 42.7284H52.2101V45.5364H51.2899ZM54.819 39.6547H52.2101V41.8746H54.819C55.2047 41.8746 55.5146 41.7829 55.7487 41.5994C55.989 41.416 56.1092 41.1378 56.1092 40.7646C56.1092 40.0246 55.6791 39.6547 54.819 39.6547ZM63.2252 45.5364L62.4757 43.9142H58.8897L58.1403 45.5364H57.2295L60.3412 38.7629H61.0717L64.1928 45.5364H63.2252ZM59.2692 43.0794H62.0962L60.6827 40.0057L59.2692 43.0794ZM68.2013 45.6503C67.24 45.6503 66.4431 45.3119 65.8106 44.6352C65.1845 43.9522 64.8714 43.13 64.8714 42.1687C64.8714 41.1884 65.1877 40.363 65.8201 39.6926C66.4526 39.0222 67.2463 38.687 68.2013 38.687C68.916 38.687 69.5642 38.8704 70.1461 39.2372C70.7279 39.6041 71.1137 40.1164 71.3035 40.7741H70.3453C70.1682 40.3883 69.8773 40.0879 69.4725 39.8729C69.0741 39.6578 68.6503 39.5503 68.2013 39.5503C67.4866 39.5503 66.9111 39.8065 66.4747 40.3187C66.0446 40.831 65.8296 41.4477 65.8296 42.1687C65.8296 42.896 66.0478 43.5158 66.4842 44.0281C66.9206 44.534 67.4929 44.787 68.2013 44.787C69.1942 44.787 69.9152 44.3759 70.3643 43.5537H71.3035C71.1959 43.9775 70.9809 44.3538 70.6584 44.6826C70.3358 45.0052 69.9595 45.2518 69.5294 45.4226C69.1563 45.5744 68.7136 45.6503 68.2013 45.6503ZM72.9409 45.5364V38.8009H73.8611V45.5364H72.9409ZM75.2967 39.6547V38.8009H81.8142V39.6547H79.0156V45.5364H78.0953V39.6547H75.2967ZM86.3536 42.6715V45.5364H85.4333V42.6904L82.3786 38.8009H83.5455L85.9172 41.8461L88.2794 38.8009H89.3514L86.3536 42.6715ZM92.3805 39.6547V38.8009H98.8979V39.6547H96.0993V45.5364H95.1791V39.6547H92.3805ZM103.122 45.6503C102.117 45.6503 101.285 45.3183 100.627 44.6542C99.9696 43.9901 99.6407 43.1616 99.6407 42.1687C99.6407 41.1694 99.9727 40.3409 100.637 39.6831C101.307 39.019 102.136 38.687 103.122 38.687C104.122 38.687 104.95 39.0222 105.608 39.6926C106.272 40.3567 106.604 41.182 106.604 42.1687C106.604 43.1616 106.269 43.9901 105.598 44.6542C104.928 45.3183 104.103 45.6503 103.122 45.6503ZM103.122 44.7965C103.862 44.7965 104.469 44.5435 104.944 44.0375C105.418 43.5253 105.655 42.9023 105.655 42.1687C105.655 41.4224 105.415 40.7994 104.934 40.2998C104.454 39.7938 103.85 39.5408 103.122 39.5408C102.376 39.5408 101.766 39.7938 101.291 40.2998C100.823 40.8057 100.589 41.4287 100.589 42.1687C100.589 42.9213 100.827 43.5474 101.301 44.047C101.782 44.5467 102.389 44.7965 103.122 44.7965ZM116.079 45.5364L115.329 43.9142H111.743L110.994 45.5364H110.083L113.195 38.7629H113.925L117.046 45.5364H116.079ZM112.123 43.0794H114.95L113.536 40.0057L112.123 43.0794ZM121.055 45.6503C120.094 45.6503 119.297 45.3119 118.664 44.6352C118.038 43.9522 117.725 43.13 117.725 42.1687C117.725 41.1884 118.041 40.363 118.674 39.6926C119.306 39.0222 120.1 38.687 121.055 38.687C121.77 38.687 122.418 38.8704 123 39.2372C123.581 39.6041 123.967 40.1164 124.157 40.7741H123.199C123.022 40.3883 122.731 40.0879 122.326 39.8729C121.928 39.6578 121.504 39.5503 121.055 39.5503C120.34 39.5503 119.765 39.8065 119.328 40.3187C118.898 40.831 118.683 41.4477 118.683 42.1687C118.683 42.896 118.901 43.5158 119.338 44.0281C119.774 44.534 120.346 44.787 121.055 44.787C122.048 44.787 122.769 44.3759 123.218 43.5537H124.157C124.049 43.9775 123.834 44.3538 123.512 44.6826C123.189 45.0052 122.813 45.2518 122.383 45.4226C122.01 45.5744 121.567 45.6503 121.055 45.6503ZM130.841 45.5364V42.5671H126.705V45.5364H125.785V38.8009H126.705V41.7133H130.841V38.8009H131.762V45.5364H130.841ZM133.854 45.5364V38.8009H134.775V45.5364H133.854ZM136.874 45.5364V38.8009H142.149V39.6547H137.785V41.533H140.394V42.3868H137.785V44.6826H142.528V45.5364H136.874ZM150.091 38.8009L147.131 45.5649H146.267L143.251 38.8009H144.294L146.723 44.3696L149.151 38.8009H150.091ZM151.494 45.5364V38.8009H156.768V39.6547H152.404V41.533H155.013V42.3868H152.404V44.6826H157.148V45.5364H151.494ZM160.446 39.6547V38.8009H166.963V39.6547H164.165V45.5364H163.245V39.6547H160.446ZM173.439 45.5364V42.5671H169.303V45.5364H168.383V38.8009H169.303V41.7133H173.439V38.8009H174.359V45.5364H173.439ZM176.443 45.5364V38.8009H181.717V39.6547H177.353V41.533H179.962V42.3868H177.353V44.6826H182.097V45.5364H176.443ZM186.069 45.5364V38.8009H186.989V45.5364H186.069ZM190.511 38.8009L192.855 44.2652L195.198 38.8009H196.574V45.5364H195.701V39.5977L193.13 45.5744H192.494L189.942 39.6357V45.5364H189.088V38.8009H190.511ZM198.659 45.5364V38.8009H202.159C202.855 38.8009 203.405 38.959 203.81 39.2752C204.221 39.5851 204.427 40.0752 204.427 40.7456C204.427 41.4034 204.218 41.8999 203.801 42.2351C203.383 42.5639 202.836 42.7284 202.159 42.7284H199.579V45.5364H198.659ZM202.188 39.6547H199.579V41.8746H202.188C202.574 41.8746 202.883 41.7829 203.117 41.5994C203.358 41.416 203.478 41.1378 203.478 40.7646C203.478 40.0246 203.048 39.6547 202.188 39.6547ZM209.135 45.6503C208.13 45.6503 207.298 45.3183 206.64 44.6542C205.982 43.9901 205.654 43.1616 205.654 42.1687C205.654 41.1694 205.986 40.3409 206.65 39.6831C207.32 39.019 208.149 38.687 209.135 38.687C210.135 38.687 210.963 39.0222 211.621 39.6926C212.285 40.3567 212.617 41.182 212.617 42.1687C212.617 43.1616 212.282 43.9901 211.611 44.6542C210.941 45.3183 210.116 45.6503 209.135 45.6503ZM209.135 44.7965C209.875 44.7965 210.482 44.5435 210.957 44.0375C211.431 43.5253 211.668 42.9023 211.668 42.1687C211.668 41.4224 211.428 40.7994 210.947 40.2998C210.467 39.7938 209.863 39.5408 209.135 39.5408C208.389 39.5408 207.779 39.7938 207.304 40.2998C206.836 40.8057 206.602 41.4287 206.602 42.1687C206.602 42.9213 206.839 43.5474 207.314 44.047C207.794 44.5467 208.402 44.7965 209.135 44.7965ZM216.555 39.5313C216.365 39.5313 216.185 39.544 216.014 39.5693C215.849 39.5946 215.679 39.642 215.502 39.7116C215.324 39.7748 215.182 39.876 215.075 40.0152C214.973 40.1543 214.923 40.3251 214.923 40.5274C214.923 41.0714 215.353 41.3939 216.213 41.4951L217.532 41.6469C218.202 41.7164 218.736 41.9125 219.135 42.2351C219.54 42.5576 219.742 43.0288 219.742 43.6486C219.742 44.0091 219.66 44.3253 219.495 44.5973C219.331 44.8692 219.11 45.0811 218.831 45.2329C218.559 45.3783 218.268 45.4859 217.959 45.5554C217.655 45.625 217.336 45.6598 217 45.6598C216.204 45.6598 215.517 45.4953 214.942 45.1665C214.373 44.8313 213.98 44.3127 213.765 43.6106H214.752C215.119 44.4139 215.868 44.8155 217 44.8155C217.196 44.8155 217.389 44.7996 217.579 44.768C217.775 44.7301 217.971 44.6732 218.167 44.5973C218.363 44.5214 218.521 44.4075 218.642 44.2557C218.762 44.0976 218.822 43.9111 218.822 43.696C218.822 43.481 218.787 43.3039 218.718 43.1648C218.648 43.0193 218.537 42.9086 218.385 42.8327C218.24 42.7505 218.101 42.6936 217.968 42.662C217.842 42.624 217.671 42.5892 217.456 42.5576L216.128 42.4153C215.514 42.3584 215.005 42.1718 214.6 41.8556C214.202 41.5394 214.003 41.0966 214.003 40.5274C214.003 40.0974 214.139 39.74 214.411 39.4554C214.689 39.1645 215.011 38.9653 215.378 38.8578C215.745 38.7439 216.137 38.687 216.555 38.687C217.294 38.687 217.94 38.8325 218.49 39.1234C219.04 39.408 219.404 39.8729 219.581 40.518H218.623C218.294 39.8602 217.604 39.5313 216.555 39.5313ZM223.688 39.5313C223.498 39.5313 223.318 39.544 223.147 39.5693C222.983 39.5946 222.812 39.642 222.635 39.7116C222.458 39.7748 222.316 39.876 222.208 40.0152C222.107 40.1543 222.056 40.3251 222.056 40.5274C222.056 41.0714 222.486 41.3939 223.346 41.4951L224.665 41.6469C225.335 41.7164 225.87 41.9125 226.268 42.2351C226.673 42.5576 226.875 43.0288 226.875 43.6486C226.875 44.0091 226.793 44.3253 226.629 44.5973C226.464 44.8692 226.243 45.0811 225.965 45.2329C225.693 45.3783 225.402 45.4859 225.092 45.5554C224.788 45.625 224.469 45.6598 224.134 45.6598C223.337 45.6598 222.651 45.4953 222.075 45.1665C221.506 44.8313 221.114 44.3127 220.899 43.6106H221.885C222.252 44.4139 223.002 44.8155 224.134 44.8155C224.33 44.8155 224.523 44.7996 224.713 44.768C224.909 44.7301 225.105 44.6732 225.301 44.5973C225.497 44.5214 225.655 44.4075 225.775 44.2557C225.895 44.0976 225.955 43.9111 225.955 43.696C225.955 43.481 225.92 43.3039 225.851 43.1648C225.781 43.0193 225.671 42.9086 225.519 42.8327C225.373 42.7505 225.234 42.6936 225.101 42.662C224.975 42.624 224.804 42.5892 224.589 42.5576L223.261 42.4153C222.648 42.3584 222.138 42.1718 221.734 41.8556C221.335 41.5394 221.136 41.0966 221.136 40.5274C221.136 40.0974 221.272 39.74 221.544 39.4554C221.822 39.1645 222.145 38.9653 222.512 38.8578C222.878 38.7439 223.271 38.687 223.688 38.687C224.428 38.687 225.073 38.8325 225.623 39.1234C226.173 39.408 226.537 39.8729 226.714 40.518H225.756C225.427 39.8602 224.738 39.5313 223.688 39.5313ZM228.592 45.5364V38.8009H229.512V45.5364H228.592ZM231.612 45.5364V38.8009H234.914C235.584 38.8009 236.128 38.9463 236.545 39.2372C236.963 39.5282 237.171 39.9899 237.171 40.6223C237.171 40.9385 237.067 41.2263 236.858 41.4856C236.656 41.7386 236.4 41.9093 236.09 41.9979C236.261 42.0485 236.419 42.1149 236.564 42.1971C236.716 42.2983 236.846 42.4121 236.953 42.5386C237.194 42.8738 237.314 43.228 237.314 43.6012C237.314 44.2716 237.099 44.7617 236.669 45.0716C236.239 45.3815 235.676 45.5364 234.98 45.5364H231.612ZM234.895 39.6452H232.523V41.6374H234.895C235.78 41.6374 236.223 41.3054 236.223 40.6413C236.223 39.9772 235.78 39.6452 234.895 39.6452ZM234.961 42.4817H232.523V44.6921H234.961C235.91 44.6921 236.384 44.3221 236.384 43.5822C236.384 42.8485 235.91 42.4817 234.961 42.4817ZM244.326 44.6732V45.5364H239.051V38.8009H239.972V44.6732H244.326ZM245.731 45.5364V38.8009H251.006V39.6547H246.642V41.533H249.251V42.3868H246.642V44.6826H251.385V45.5364H245.731Z" fill="#A7C0BD"/>
<path d="M9.82812 26.8789H277.513" stroke="black" stroke-width="0.316225"/>
</g>
<defs>
<clipPath id="clip0_241_16650">
<rect width="287.449" height="47.75" fill="white" transform="translate(0.0253906)"/>
</clipPath>
</defs>
</svg>
