<svg width="25" height="26" viewBox="0 0 25 26" fill="none" xmlns="http://www.w3.org/2000/svg">
<g clip-path="url(#clip0_241_16791)">
<g clip-path="url(#clip1_241_16791)">
<g clip-path="url(#clip2_241_16791)">
<path fill-rule="evenodd" clip-rule="evenodd" d="M0 8.38776C0 4.09221 3.48222 0.609985 7.77778 0.609985H17.2222C21.5178 0.609985 25 4.09221 25 8.38776V19.4989C25 22.8739 22.2639 25.61 18.8889 25.61V24.8692C21.8548 24.8692 24.2593 22.4648 24.2593 19.4989V8.38776C24.2593 4.50132 21.1087 1.35073 17.2222 1.35073H7.77778C3.89133 1.35073 0.740741 4.50132 0.740741 8.38776V17.8322C0.740741 21.7187 3.89133 24.8692 7.77778 24.8692H11.2963V25.61H7.77778C3.48222 25.61 0 22.1278 0 17.8322V8.38776Z" fill="black"/>
<path fill-rule="evenodd" clip-rule="evenodd" d="M12.5009 18.3877C15.4158 18.3877 17.7787 16.0248 17.7787 13.1099C17.7787 10.1951 15.4158 7.83217 12.5009 7.83217C9.58611 7.83217 7.22316 10.1951 7.22316 13.1099C7.22316 16.0248 9.58611 18.3877 12.5009 18.3877ZM12.5009 19.1285C15.8249 19.1285 18.5195 16.4339 18.5195 13.1099C18.5195 9.786 15.8249 7.09143 12.5009 7.09143C9.177 7.09143 6.48242 9.786 6.48242 13.1099C6.48242 16.4339 9.177 19.1285 12.5009 19.1285Z" fill="black"/>
<path fill-rule="evenodd" clip-rule="evenodd" d="M19.1675 7.64704C19.7301 7.64704 20.186 7.19104 20.186 6.62852C20.186 6.066 19.7301 5.61 19.1675 5.61C18.6049 5.61 18.1489 6.066 18.1489 6.62852C18.1489 7.19104 18.6049 7.64704 19.1675 7.64704ZM19.1675 8.38778C20.1391 8.38778 20.9267 7.60013 20.9267 6.62852C20.9267 5.65691 20.1391 4.86926 19.1675 4.86926C18.1959 4.86926 17.4082 5.65691 17.4082 6.62852C17.4082 7.60013 18.1959 8.38778 19.1675 8.38778Z" fill="black"/>
</g>
</g>
</g>
<defs>
<clipPath id="clip0_241_16791">
<rect width="25" height="25" fill="white" transform="translate(0 0.609985)"/>
</clipPath>
<clipPath id="clip1_241_16791">
<rect width="25" height="25" fill="white" transform="translate(0 0.609985)"/>
</clipPath>
<clipPath id="clip2_241_16791">
<rect width="25" height="25" fill="white" transform="translate(0 0.609985)"/>
</clipPath>
</defs>
</svg>
