<svg width="25" height="26" viewBox="0 0 25 26" fill="none" xmlns="http://www.w3.org/2000/svg">
<g clip-path="url(#clip0_241_16798)">
<g clip-path="url(#clip1_241_16798)">
<g clip-path="url(#clip2_241_16798)">
<path fill-rule="evenodd" clip-rule="evenodd" d="M0 8.38776C0 4.09221 3.48222 0.609985 7.77778 0.609985H17.2222C21.5178 0.609985 25 4.09221 25 8.38776V19.4989C25 22.8739 22.2639 25.61 18.8889 25.61V24.8692C21.8548 24.8692 24.2593 22.4648 24.2593 19.4989V8.38776C24.2593 4.50132 21.1087 1.35073 17.2222 1.35073H7.77778C3.89133 1.35073 0.740741 4.50132 0.740741 8.38776V17.8322C0.740741 21.7187 3.89133 24.8692 7.77778 24.8692H8.24074V25.61H7.77778C3.48222 25.61 0 22.1278 0 17.8322V8.38776Z" fill="black"/>
<path fill-rule="evenodd" clip-rule="evenodd" d="M18.3342 21.1654H18.0649C16.9399 21.1654 16.0279 20.2534 16.0279 19.1284V15.5458C16.0279 14.9508 15.9115 14.6123 15.7848 14.4392C15.6875 14.3063 15.5365 14.2014 15.203 14.2014C14.8071 14.2014 14.5965 14.3268 14.4678 14.4834C14.3203 14.6628 14.1918 14.993 14.1918 15.5458V19.1284C14.1918 20.2534 13.2798 21.1654 12.1548 21.1654H11.9893C10.8643 21.1654 9.95226 20.2534 9.95226 19.1284V12.4269C9.95226 11.3018 10.8643 10.3898 11.9893 10.3898H13.1985C13.5206 10.3898 13.807 10.5432 13.9884 10.7809C14.5352 10.4134 15.2848 10.1059 16.2508 10.1059C17.3864 10.1059 18.4401 10.4559 19.2088 11.2418C19.977 12.0273 20.3712 13.1567 20.3712 14.5402V19.1284C20.3712 20.2534 19.4592 21.1654 18.3342 21.1654ZM6.88678 9.96588C5.53231 9.96588 4.44531 8.86036 4.44531 7.5101C4.44531 6.15984 5.53231 5.05432 6.88678 5.05432C8.2415 5.05432 9.32778 6.1601 9.32778 7.5101C9.32778 8.8601 8.2415 9.96588 6.88678 9.96588ZM7.04228 21.1654H6.75892C5.63391 21.1654 4.72189 20.2534 4.72189 19.1284V12.4269C4.72189 11.3018 5.63391 10.3898 6.75892 10.3898H7.04228C8.16729 10.3898 9.07931 11.3018 9.07931 12.4269V19.1284C9.07931 20.2534 8.16729 21.1654 7.04228 21.1654ZM18.3342 20.4247C19.0501 20.4247 19.6305 19.8443 19.6305 19.1284V14.5402C19.6305 12.0505 18.2204 10.8466 16.2508 10.8466C15.2552 10.8466 14.5509 11.2387 14.0977 11.6267C13.8985 11.7973 13.4511 11.6454 13.4511 11.3831C13.4511 11.2437 13.338 11.1306 13.1985 11.1306H11.9893C11.2734 11.1306 10.693 11.711 10.693 12.4269V19.1284C10.693 19.8443 11.2734 20.4247 11.9893 20.4247H12.1548C12.8707 20.4247 13.4511 19.8443 13.4511 19.1284V15.5458C13.4511 14.2386 14.0523 13.4607 15.203 13.4607C16.2608 13.4607 16.7686 14.2082 16.7686 15.5458V19.1284C16.7686 19.8443 17.349 20.4247 18.0649 20.4247H18.3342ZM5.18605 7.5101C5.18605 8.45719 5.94731 9.22514 6.88678 9.22514C7.82622 9.22514 8.58703 8.45719 8.58703 7.5101C8.58703 6.56299 7.82622 5.79506 6.88678 5.79506C5.94731 5.79506 5.18605 6.56299 5.18605 7.5101ZM6.75892 20.4247C6.043 20.4247 5.46263 19.8443 5.46263 19.1284V12.4269C5.46263 11.711 6.043 11.1306 6.75892 11.1306H7.04228C7.7582 11.1306 8.33857 11.711 8.33857 12.4269V19.1284C8.33857 19.8443 7.7582 20.4247 7.04228 20.4247H6.75892Z" fill="black"/>
</g>
</g>
</g>
<defs>
<clipPath id="clip0_241_16798">
<rect width="25" height="25" fill="white" transform="translate(0 0.609985)"/>
</clipPath>
<clipPath id="clip1_241_16798">
<rect width="25" height="25" fill="white" transform="translate(0 0.609985)"/>
</clipPath>
<clipPath id="clip2_241_16798">
<rect width="25" height="25" fill="white" transform="translate(0 0.609985)"/>
</clipPath>
</defs>
</svg>
