<svg width="350" height="23" viewBox="0 0 350 23" fill="none" xmlns="http://www.w3.org/2000/svg">
<g clip-path="url(#clip0_241_16823)">
<g clip-path="url(#clip1_241_16823)">
<g clip-path="url(#clip2_241_16823)">
<path d="M15.3023 0.984131H10.8758L0.0263672 21.815H4.10573L6.4492 17.3016H19.7289L22.0723 21.815H26.1517L15.3891 1.15773L15.3023 0.984131ZM17.9061 13.743H8.27191L13.0457 4.54271L17.9061 13.743Z" fill="black"/>
<path d="M38.737 12.7882H50.5413V9.31644H38.737V4.45594H55.6621V0.984131H35.0049V21.815H56.4433V18.3432H38.737V12.7882Z" fill="black"/>
<path d="M86.475 13.2225C87.1693 12.8753 87.6901 12.5281 88.2109 12.0073C88.7317 11.4866 89.0788 10.879 89.3393 10.1847C89.5996 9.49026 89.7732 8.62232 89.7732 7.75437C89.7732 5.75808 89.1657 4.109 87.9505 2.89386C86.7353 1.67873 84.9994 1.15796 82.8296 1.15796H66.7725V21.8152H70.5047V14.0037H80.3993L85.7806 21.6416L85.8674 21.7284H90.2072L84.7391 13.7433C85.2598 13.6564 85.8674 13.4828 86.475 13.2225ZM70.4179 4.45616H81.9616C84.6523 4.45616 85.9542 5.49772 85.9542 7.6676C85.9542 8.62234 85.6939 9.3167 84.9994 9.83747C84.392 10.3583 83.4371 10.6186 82.222 10.6186H70.4179V4.45616Z" fill="black"/>
<path d="M121.28 3.15427C120.151 2.28632 118.849 1.59193 117.287 1.07116C115.725 0.550393 114.075 0.290039 112.339 0.290039C110.604 0.290039 108.955 0.550393 107.392 1.07116C105.83 1.59193 104.528 2.28632 103.4 3.15427C100.622 5.32415 99.2334 8.01479 99.2334 11.3998C99.2334 14.7849 100.622 17.5622 103.4 19.6453C104.528 20.5133 105.917 21.2076 107.392 21.6416C108.955 22.1624 110.604 22.4228 112.426 22.4228C114.162 22.4228 115.898 22.1624 117.374 21.7284C118.936 21.2077 120.238 20.6 121.367 19.7321C124.144 17.6491 125.533 14.8716 125.533 11.4866C125.445 8.01477 124.057 5.32415 121.28 3.15427ZM112.339 18.8641C110.951 18.8641 109.649 18.6906 108.521 18.3434C107.392 17.9963 106.438 17.4755 105.569 16.7811C104.789 16.0868 104.181 15.3056 103.747 14.4376C103.313 13.4828 103.139 12.5281 103.139 11.3998C103.139 10.3583 103.4 9.3167 103.833 8.44874C104.268 7.494 104.962 6.71289 105.743 6.10532C106.525 5.41096 107.566 4.89015 108.695 4.54297C109.822 4.19579 111.125 3.93544 112.513 3.93544C113.728 3.93544 114.944 4.10901 115.985 4.45619C117.027 4.80338 117.981 5.23733 118.762 5.8449C120.672 7.32042 121.714 9.22991 121.714 11.4866C121.714 12.6149 121.454 13.6565 121.106 14.5244C120.672 15.4792 120.065 16.2603 119.284 16.8679C118.502 17.5622 117.548 18.083 116.419 18.4302C115.117 18.6906 113.815 18.8641 112.339 18.8641Z" fill="black"/>
<path d="M157.56 2.8067C156.952 2.19914 156.258 1.76517 155.39 1.50477C154.522 1.1576 153.567 1.0708 152.525 1.0708H136.382V21.8148H140.113V14.0033H151.918C154.348 14.0033 156.258 13.4825 157.56 12.3542C158.861 11.2259 159.469 9.66352 159.469 7.58044C159.469 6.62569 159.295 5.67096 158.948 4.88981C158.601 4.10865 158.08 3.41427 157.56 2.8067ZM154.695 9.83715C154.088 10.3579 153.133 10.6183 151.918 10.6183H140.027V4.45583H151.658C154.261 4.45583 155.564 5.49738 155.564 7.66726C155.564 8.62201 155.303 9.31637 154.695 9.83715Z" fill="black"/>
<path d="M178.216 0.984375H173.79L162.94 21.8152H167.02L169.363 17.3019H182.643L184.986 21.8152H189.066L178.303 1.15798L178.216 0.984375ZM180.82 13.7432H171.186L175.96 4.54296L180.82 13.7432Z" fill="black"/>
<path d="M217.447 13.2225C218.142 12.8753 218.663 12.5281 219.184 12.0073C219.705 11.4866 220.052 10.879 220.312 10.1847C220.573 9.49026 220.746 8.62232 220.746 7.75437C220.746 5.75808 220.139 4.109 218.923 2.89386C217.709 1.67873 215.973 1.15796 213.803 1.15796H197.745V21.8152H201.478V14.0037H211.373L216.753 21.6416L216.84 21.7284H221.18L215.712 13.7433C216.32 13.6564 216.927 13.4828 217.447 13.2225ZM201.391 4.45616H212.934C215.626 4.45616 216.927 5.49772 216.927 7.6676C216.927 8.62234 216.667 9.3167 215.973 9.83747C215.364 10.3583 214.41 10.6186 213.194 10.6186H201.391V4.45616Z" fill="black"/>
<path d="M227.083 4.45618H236.718V21.8152H240.449V4.45618H250.084V0.984375H227.083V4.45618Z" fill="black"/>
<path d="M278.291 17.3884L263.189 1.07091V0.984131H258.763V21.815H262.495V5.41066L277.511 21.7282L277.597 21.815H282.024V0.984131H278.291V17.3884Z" fill="black"/>
<path d="M297.647 12.7884H309.451V9.31668H297.647V4.45618H314.573V0.984375H293.915V21.8152H315.353V18.3434H297.647V12.7884Z" fill="black"/>
<path d="M343.562 13.7429C344.17 13.5693 344.778 13.3957 345.385 13.1354C346.079 12.7881 346.6 12.4409 347.121 11.9202C347.642 11.3995 347.989 10.7919 348.25 10.0975C348.51 9.40315 348.684 8.53522 348.684 7.66726C348.684 5.67097 348.075 4.02184 346.861 2.8067C345.645 1.59158 343.909 1.0708 341.739 1.0708H325.683V21.8148H329.415V14.0033H339.309L344.691 21.6413L344.778 21.7281H349.117L343.562 13.7429ZM329.328 4.45583H340.872C343.562 4.45583 344.864 5.49738 344.864 7.66726C344.864 8.62201 344.604 9.31637 343.909 9.83715C343.302 10.3579 342.347 10.6183 341.132 10.6183H329.328V4.45583Z" fill="black"/>
</g>
</g>
</g>
<defs>
<clipPath id="clip0_241_16823">
<rect width="350" height="22.42" fill="white" transform="translate(0 0.290039)"/>
</clipPath>
<clipPath id="clip1_241_16823">
<rect width="350" height="22.42" fill="white" transform="translate(0 0.290039)"/>
</clipPath>
<clipPath id="clip2_241_16823">
<rect width="349.947" height="22.42" fill="white" transform="translate(0.0263672 0.290039)"/>
</clipPath>
</defs>
</svg>
