<svg width="21" height="34" viewBox="0 0 21 34" fill="none" xmlns="http://www.w3.org/2000/svg">
<path d="M9.36133 15.9592C9.65299 16.2327 9.99935 16.3694 10.4004 16.3694C10.8014 16.3694 11.1387 16.2327 11.4121 15.9592C11.7038 15.6676 11.8496 15.3212 11.8496 14.9202C11.8496 14.5191 11.7038 14.1819 11.4121 13.9084C11.1387 13.6168 10.8014 13.4709 10.4004 13.4709C9.99935 13.4709 9.65299 13.6168 9.36133 13.9084C9.08789 14.1819 8.95117 14.5191 8.95117 14.9202C8.95117 15.3212 9.08789 15.6676 9.36133 15.9592ZM7.50195 12.0491C8.30404 11.247 9.27018 10.8459 10.4004 10.8459C11.5306 10.8459 12.4876 11.247 13.2715 12.0491C14.0736 12.8329 14.4746 13.79 14.4746 14.9202C14.4746 15.4853 14.3288 16.1324 14.0371 16.8616C13.7637 17.5907 13.4264 18.2743 13.0254 18.9124C12.6243 19.5504 12.2233 20.1519 11.8223 20.717C11.4395 21.2639 11.1113 21.7014 10.8379 22.0295L10.4004 22.4944C10.291 22.3668 10.1452 22.2027 9.96289 22.0022C9.7806 21.7834 9.45247 21.3642 8.97852 20.7444C8.50456 20.1064 8.08529 19.4957 7.7207 18.9124C7.37435 18.3108 7.05534 17.6363 6.76367 16.8889C6.47201 16.1415 6.32617 15.4853 6.32617 14.9202C6.32617 13.79 6.7181 12.8329 7.50195 12.0491Z" fill="#404040"/>
</svg>
