<svg width="10" height="10" viewBox="0 0 10 10" fill="none" xmlns="http://www.w3.org/2000/svg">
<path d="M1.86035 6.50684C2.93587 6.06934 3.96582 5.85059 4.9502 5.85059C5.93457 5.85059 6.9554 6.06934 8.0127 6.50684C9.08822 6.92611 9.62598 7.4821 9.62598 8.1748V9.35059H0.274414V8.1748C0.274414 7.4821 0.80306 6.92611 1.86035 6.50684ZM6.59082 3.99121C6.13509 4.44694 5.58822 4.6748 4.9502 4.6748C4.31217 4.6748 3.7653 4.44694 3.30957 3.99121C2.85384 3.53548 2.62598 2.98861 2.62598 2.35059C2.62598 1.71257 2.85384 1.16569 3.30957 0.709961C3.7653 0.236003 4.31217 -0.000976562 4.9502 -0.000976562C5.58822 -0.000976562 6.13509 0.236003 6.59082 0.709961C7.04655 1.16569 7.27441 1.71257 7.27441 2.35059C7.27441 2.98861 7.04655 3.53548 6.59082 3.99121Z" fill="#BAB6B6"/>
</svg>
