<svg width="12" height="12" viewBox="0 0 12 12" fill="none" xmlns="http://www.w3.org/2000/svg">
<path d="M9.22754 7.34277C9.264 7.37923 9.33691 7.46126 9.44629 7.58887C9.57389 7.69824 9.65592 7.77116 9.69238 7.80762C9.72884 7.84408 9.80176 7.92611 9.91113 8.05371C10.0387 8.18132 10.1117 8.27246 10.1299 8.32715C10.1663 8.36361 10.2393 8.44564 10.3486 8.57324C10.458 8.70085 10.5127 8.79199 10.5127 8.84668C10.5309 8.90137 10.5765 9.00163 10.6494 9.14746C10.7406 9.29329 10.7679 9.40267 10.7314 9.47559C10.7132 9.53027 10.7223 9.63965 10.7588 9.80371C10.8135 9.94954 10.8135 10.0589 10.7588 10.1318C10.5583 10.8975 10.1025 11.3532 9.3916 11.499C9.264 11.5173 8.81738 11.4808 8.05176 11.3896C7.30436 11.2985 6.67546 11.2529 6.16504 11.2529H6.05566C5.54525 11.2529 4.90723 11.2985 4.1416 11.3896C3.39421 11.4808 2.95671 11.5173 2.8291 11.499C2.11816 11.3532 1.66243 10.8975 1.46191 10.1318C1.40723 9.76725 1.47103 9.39355 1.65332 9.01074C1.83561 8.62793 1.99967 8.35449 2.14551 8.19043C2.30957 8.02637 2.59212 7.74382 2.99316 7.34277C3.17546 7.14225 3.41243 6.8597 3.7041 6.49512C4.014 6.13053 4.26009 5.84798 4.44238 5.64746C4.77051 5.24642 5.10775 4.99121 5.4541 4.88184C5.52702 4.84538 5.59082 4.82715 5.64551 4.82715C5.75488 4.80892 5.90983 4.7998 6.11035 4.7998C6.3291 4.7998 6.48405 4.80892 6.5752 4.82715C6.62988 4.82715 6.69368 4.84538 6.7666 4.88184C7.11296 4.99121 7.4502 5.24642 7.77832 5.64746C7.94238 5.84798 8.17936 6.13053 8.48926 6.49512C8.79915 6.8597 9.04525 7.14225 9.22754 7.34277ZM9.44629 5.26465C9.17285 4.97298 9.03613 4.62663 9.03613 4.22559C9.03613 3.82454 9.17285 3.47819 9.44629 3.18652C9.73796 2.89486 10.0843 2.74902 10.4854 2.74902C10.8864 2.74902 11.2236 2.89486 11.4971 3.18652C11.7887 3.47819 11.9346 3.82454 11.9346 4.22559C11.9346 4.62663 11.7887 4.97298 11.4971 5.26465C11.2236 5.53809 10.8864 5.6748 10.4854 5.6748C10.0843 5.6748 9.73796 5.53809 9.44629 5.26465ZM6.82129 2.91309C6.54785 2.62142 6.41113 2.27507 6.41113 1.87402C6.41113 1.47298 6.54785 1.13574 6.82129 0.862305C7.11296 0.570638 7.45931 0.424805 7.86035 0.424805C8.26139 0.424805 8.59863 0.570638 8.87207 0.862305C9.16374 1.13574 9.30957 1.47298 9.30957 1.87402C9.30957 2.27507 9.16374 2.62142 8.87207 2.91309C8.59863 3.20475 8.26139 3.35059 7.86035 3.35059C7.45931 3.35059 7.11296 3.20475 6.82129 2.91309ZM3.32129 2.91309C3.04785 2.62142 2.91113 2.27507 2.91113 1.87402C2.91113 1.47298 3.04785 1.13574 3.32129 0.862305C3.61296 0.570638 3.95931 0.424805 4.36035 0.424805C4.76139 0.424805 5.09863 0.570638 5.37207 0.862305C5.66374 1.13574 5.80957 1.47298 5.80957 1.87402C5.80957 2.27507 5.66374 2.62142 5.37207 2.91309C5.09863 3.20475 4.76139 3.35059 4.36035 3.35059C3.95931 3.35059 3.61296 3.20475 3.32129 2.91309ZM0.696289 5.26465C0.422852 4.97298 0.286133 4.62663 0.286133 4.22559C0.286133 3.82454 0.422852 3.47819 0.696289 3.18652C0.987956 2.89486 1.33431 2.74902 1.73535 2.74902C2.13639 2.74902 2.47363 2.89486 2.74707 3.18652C3.03874 3.47819 3.18457 3.82454 3.18457 4.22559C3.18457 4.62663 3.03874 4.97298 2.74707 5.26465C2.47363 5.53809 2.13639 5.6748 1.73535 5.6748C1.33431 5.6748 0.987956 5.53809 0.696289 5.26465Z" fill="#BAB6B6"/>
</svg>
