<svg width="13" height="11" viewBox="0 0 13 11" fill="none" xmlns="http://www.w3.org/2000/svg">
<path d="M8.65137 5.63574C9.21647 5.63574 9.69043 5.80892 10.0732 6.15527C10.4743 6.50163 10.6748 6.93913 10.6748 7.46777V8.4248H9.7998V7.65918C9.7998 7.2946 9.68132 7.01204 9.44434 6.81152C9.22559 6.59277 8.96126 6.4834 8.65137 6.4834H7.74902C7.22038 6.4834 6.76465 6.29199 6.38184 5.90918C5.99902 5.50814 5.80762 5.04329 5.80762 4.51465C5.80762 3.986 5.99902 3.53027 6.38184 3.14746C6.76465 2.76465 7.22038 2.57324 7.74902 2.57324V3.44824C7.43913 3.44824 7.18392 3.5485 6.9834 3.74902C6.78288 3.93132 6.68262 4.16829 6.68262 4.45996C6.68262 4.76986 6.78288 5.04329 6.9834 5.28027C7.20215 5.51725 7.45736 5.63574 7.74902 5.63574H8.65137ZM10.292 4.18652C10.8389 4.44173 11.2764 4.83366 11.6045 5.3623C11.9508 5.89095 12.124 6.47428 12.124 7.1123V8.4248H11.249V7.1123C11.249 6.45605 11.0212 5.90007 10.5654 5.44434C10.1279 4.98861 9.58105 4.76074 8.9248 4.76074V3.88574C9.21647 3.88574 9.46257 3.78548 9.66309 3.58496C9.88184 3.36621 9.99121 3.10189 9.99121 2.79199C9.99121 2.50033 9.88184 2.25423 9.66309 2.05371C9.46257 1.83496 9.21647 1.72559 8.9248 1.72559V0.850586C9.45345 0.850586 9.90918 1.04199 10.292 1.4248C10.6748 1.80762 10.8662 2.26335 10.8662 2.79199C10.8662 3.33887 10.6748 3.80371 10.292 4.18652ZM9.7998 8.99902H10.6748V10.749H9.7998V8.99902ZM11.249 8.99902H12.124V10.749H11.249V8.99902ZM0.475586 8.99902H9.22559V10.749H0.475586V8.99902Z" fill="#BAB6B6"/>
</svg>
