<svg width="22" height="23" viewBox="0 0 22 23" fill="none" xmlns="http://www.w3.org/2000/svg">
<g clip-path="url(#clip0_241_16870)">
<path d="M13.75 8.74992L17.4167 5.08325M17.4167 5.08325V7.83325M17.4167 5.08325H14.6667" stroke="black" stroke-width="0.916667" stroke-linecap="round" stroke-linejoin="round"/>
<path d="M14.1127 14.5196L14.5298 14.0796L13.5325 13.1327L13.1154 13.5736L14.1127 14.5196ZM15.9039 13.8944L17.6547 14.9037L18.3413 13.7111L16.5896 12.7028L15.9039 13.8944ZM17.993 16.9928L16.6913 18.3632L17.6877 19.311L18.9894 17.9406L17.993 16.9928ZM15.9076 18.8032C14.5921 18.9324 11.1592 18.8224 7.43389 14.9009L6.43748 15.8469C10.4974 20.1214 14.3703 20.3377 16.0423 20.1718L15.9076 18.8032ZM7.43389 14.9009C3.88089 11.16 3.28506 8.00398 3.21081 6.61981L1.83764 6.69406C1.92931 8.3899 2.64798 11.8576 6.43748 15.8469L7.43389 14.9009ZM8.69523 8.81615L8.95739 8.53931L7.96098 7.5924L7.69789 7.86923L8.69523 8.81615ZM9.16456 5.09265L8.00864 3.45915L6.88573 4.25298L8.04073 5.8874L9.16456 5.09265ZM4.09539 3.10531L2.65806 4.62148L3.65539 5.5684L5.09456 4.05315L4.09539 3.10531ZM8.19656 8.34223C8.03158 8.18323 7.86505 8.02587 7.69698 7.87015L7.69514 7.87198L7.69239 7.87473C7.6763 7.89172 7.66101 7.90947 7.64656 7.9279C7.55671 8.04683 7.4856 8.17883 7.43573 8.31931C7.34589 8.5714 7.29823 8.90506 7.35873 9.32123C7.47789 10.1389 8.01414 11.2379 9.41389 12.7129L10.4112 11.765C9.10223 10.3873 8.77956 9.5394 8.71906 9.1214C8.68973 8.91973 8.71906 8.81431 8.73098 8.7804L8.73831 8.76298C8.73083 8.77506 8.72224 8.78641 8.71264 8.7969C8.70726 8.80311 8.70176 8.80923 8.69614 8.81523C8.69614 8.81523 8.69431 8.81523 8.19656 8.34223ZM9.41389 12.7129C10.81 14.1832 11.8641 14.7598 12.6681 14.8909C13.0815 14.9578 13.4161 14.9037 13.6691 14.8038C13.8092 14.7488 13.9396 14.6714 14.055 14.5746C14.0663 14.5645 14.0773 14.5542 14.088 14.5434L14.1008 14.5306C14.103 14.5289 14.1051 14.527 14.1072 14.5251L14.11 14.5224L14.1109 14.5205C14.1109 14.5205 14.1127 14.5196 13.6141 14.0457C13.1154 13.5727 13.1163 13.5718 13.1163 13.5709L13.1181 13.5699L13.12 13.5672C13.1215 13.5657 13.1231 13.5642 13.1246 13.5626L13.1337 13.5534C13.1445 13.5431 13.1558 13.5333 13.1676 13.5241C13.1768 13.5186 13.1759 13.5204 13.164 13.525C13.1456 13.5324 13.0631 13.5617 12.889 13.5333C12.5205 13.4728 11.7248 13.1483 10.4112 11.765L9.41389 12.7129ZM8.00864 3.45915C7.07914 2.14465 5.22014 1.9219 4.09631 3.10623L5.09181 4.05315C5.57123 3.54898 6.41639 3.5884 6.88573 4.25298L8.00864 3.45915ZM3.21081 6.61981C3.19064 6.25315 3.35106 5.8874 3.65539 5.5684L2.65806 4.62148C2.16673 5.13848 1.79273 5.85623 1.83764 6.69406L3.21081 6.61981ZM16.6904 18.3641C16.4346 18.6336 16.1679 18.7775 15.9076 18.8032L16.0423 20.1718C16.7271 20.1049 17.2816 19.7391 17.6877 19.311L16.6904 18.3641ZM8.95739 8.53931C9.84473 7.60523 9.90706 6.14406 9.16456 5.09265L8.04164 5.8874C8.42848 6.43465 8.36889 7.1634 7.96098 7.5924L8.95739 8.53931ZM17.6547 14.9037C18.4073 15.3373 18.5549 16.4015 17.993 16.9928L18.9894 17.9406C20.1856 16.6811 19.8373 14.5728 18.3413 13.7111L17.6547 14.9037ZM14.5298 14.0796C14.8827 13.7074 15.4336 13.6249 15.9039 13.8954L16.5896 12.7037C15.5821 12.1244 14.3346 12.2912 13.5325 13.1345L14.5298 14.0796Z" fill="black"/>
</g>
<defs>
<clipPath id="clip0_241_16870">
<rect width="22" height="22" fill="white" transform="translate(0 0.5)"/>
</clipPath>
</defs>
</svg>
