<svg width="11" height="13" viewBox="0 0 11 13" fill="none" xmlns="http://www.w3.org/2000/svg">
<path d="M8.36621 2.84668C8.14746 3.06543 7.87402 3.1748 7.5459 3.1748C7.21777 3.1748 6.93522 3.06543 6.69824 2.84668C6.47949 2.6097 6.37012 2.32715 6.37012 1.99902C6.37012 1.6709 6.47949 1.39746 6.69824 1.17871C6.93522 0.959961 7.21777 0.850586 7.5459 0.850586C7.87402 0.850586 8.14746 0.959961 8.36621 1.17871C8.60319 1.39746 8.72168 1.6709 8.72168 1.99902C8.72168 2.32715 8.60319 2.6097 8.36621 2.84668ZM3.11621 2.84668C2.89746 3.06543 2.62402 3.1748 2.2959 3.1748C1.96777 3.1748 1.68522 3.06543 1.44824 2.84668C1.22949 2.6097 1.12012 2.32715 1.12012 1.99902C1.12012 1.6709 1.22949 1.39746 1.44824 1.17871C1.68522 0.959961 1.96777 0.850586 2.2959 0.850586C2.62402 0.850586 2.89746 0.959961 3.11621 1.17871C3.35319 1.39746 3.47168 1.6709 3.47168 1.99902C3.47168 2.32715 3.35319 2.6097 3.11621 2.84668ZM8.4209 12.499H6.6709V8.99902H4.9209L6.39746 4.56934C6.47038 4.35059 6.61621 4.15918 6.83496 3.99512C7.05371 3.83105 7.28158 3.74902 7.51855 3.74902H7.57324C7.81022 3.74902 8.03809 3.83105 8.25684 3.99512C8.47559 4.15918 8.62142 4.35059 8.69434 4.56934L10.1709 8.99902H8.4209V12.499ZM1.12012 12.499V8.12402H0.245117V4.9248C0.245117 4.61491 0.363607 4.34147 0.600586 4.10449C0.837565 3.86751 1.111 3.74902 1.4209 3.74902H3.1709C3.48079 3.74902 3.75423 3.86751 3.99121 4.10449C4.22819 4.34147 4.34668 4.61491 4.34668 4.9248V8.12402H3.47168V12.499H1.12012Z" fill="#BAB6B6"/>
</svg>
