<svg width="23" height="25" viewBox="0 0 23 25" fill="none" xmlns="http://www.w3.org/2000/svg">
<g clip-path="url(#clip0_241_16857)">
<g clip-path="url(#clip1_241_16857)">
<path d="M18.9699 5.55555C17.9986 4.58318 16.8416 3.81221 15.5665 3.28761C14.2914 2.76302 12.9237 2.4953 11.5431 2.50006C5.75836 2.50006 1.04375 7.17255 1.04375 12.9055C1.04375 14.743 1.5311 16.528 2.44224 18.103L0.958984 23.5L6.52117 22.051C8.0574 22.8805 9.78432 23.3215 11.5431 23.3215C17.3277 23.3215 22.0423 18.649 22.0423 12.916C22.0423 10.1335 20.9511 7.51905 18.9699 5.55555ZM11.5431 21.5575C9.97503 21.5575 8.4388 21.1375 7.09328 20.35L6.77544 20.161L3.46992 21.022L4.34927 17.83L4.13738 17.5045C3.26623 16.1258 2.80366 14.5322 2.80246 12.9055C2.80246 8.13855 6.72247 4.25356 11.5325 4.25356C13.8633 4.25356 16.0564 5.15655 17.6985 6.79455C18.5117 7.59671 19.156 8.55084 19.5943 9.60164C20.0326 10.6524 20.2561 11.779 20.2518 12.916C20.273 17.683 16.353 21.5575 11.5431 21.5575ZM16.3318 15.0895C16.067 14.9635 14.7744 14.3335 14.5413 14.239C14.2977 14.155 14.1281 14.113 13.948 14.365C13.7679 14.6275 13.27 15.2155 13.1217 15.3835C12.9733 15.562 12.8144 15.583 12.5495 15.4465C12.2847 15.3205 11.4371 15.037 10.4412 14.155C9.65719 13.462 9.13805 12.6115 8.97913 12.349C8.8308 12.0865 8.95794 11.95 9.09567 11.8135C9.21221 11.698 9.36054 11.509 9.48767 11.362C9.61481 11.215 9.66778 11.0995 9.75254 10.9315C9.8373 10.753 9.79492 10.606 9.73135 10.48C9.66778 10.354 9.13805 9.07304 8.92616 8.54804C8.71426 8.04405 8.49178 8.10705 8.33286 8.09655H7.82431C7.64421 8.09655 7.36874 8.15955 7.12507 8.42204C6.89199 8.68454 6.21393 9.31454 6.21393 10.5955C6.21393 11.8765 7.15685 13.1155 7.28399 13.2835C7.41112 13.462 9.13805 16.087 11.7655 17.2105C12.3906 17.4835 12.878 17.641 13.2594 17.7565C13.8845 17.956 14.4566 17.9245 14.9121 17.8615C15.4207 17.788 16.4696 17.2315 16.6815 16.6225C16.9039 16.0135 16.9039 15.499 16.8298 15.3835C16.7556 15.268 16.5967 15.2155 16.3318 15.0895Z" fill="black"/>
</g>
</g>
<defs>
<clipPath id="clip0_241_16857">
<rect width="23" height="24" fill="white" transform="translate(0 0.5)"/>
</clipPath>
<clipPath id="clip1_241_16857">
<rect width="23" height="24" fill="white" transform="translate(0 0.5)"/>
</clipPath>
</defs>
</svg>
